#!OML:ASF F:\VICON\USERDATA\INSTALL\rory3\rory3.ASF
:FULLY-SPECIFIED
:DEGREES
524
root 4.59517 18.7957 6.99455 16.3497 -11.7949 -7.60011
lowerback 1.36654 1.30115 4.57542
upperback -5.67563 2.0631 1.87063
thorax -6.59358 0.828683 -0.749954
lowerneck -11.8903 -4.32617 -5.09518
upperneck 21.1692 -5.75444 3.44014
head 8.82376 -2.77356 1.36735
rclavicle 1.07965e-014 1.37161e-014
rhumerus -36.8759 3.25641 -83.0692
rradius 47.7645
rwrist 7.97367
rhand -23.2078 -53.4733
rfingers 7.12502
rthumb 3.24245 -83.4284
lclavicle 1.07965e-014 1.37161e-014
lhumerus -48.139 -13.1311 83.5715
lradius 44.2072
lwrist -3.38802
lhand -29.7984 -39.7386
lfingers 7.12502
lthumb -3.1228 -9.78174
rfemur -93.8237 -7.71916 25.3152
rtibia 137.875
rfoot -2.81846 -1.59623
rtoes -7.74305
lfemur -20.0497 6.59276 -14.5223
ltibia 23.2638
lfoot 9.4271 6.96125
ltoes -25.2501
525
root 4.65342 18.562 6.9575 15.8202 -12.114 -7.50812
lowerback 2.05942 1.29345 4.5657
upperback -5.52897 2.08589 1.76455
thorax -6.83292 0.833789 -0.873396
lowerneck -10.5286 -4.12351 -5.68699
upperneck 19.63 -5.59255 4.48627
head 8.09462 -2.66241 1.86252
rclavicle 9.87711e-015 6.95746e-014
rhumerus -36.842 3.29048 -83.1836
rradius 48.8861
rwrist 8.00591
rhand -22.8894 -54.2182
rfingers 7.12502
rthumb 3.54994 -84.1683
lclavicle 9.87711e-015 6.95746e-014
lhumerus -48.2165 -13.0782 83.1933
lradius 44.9949
lwrist -3.84316
lhand -29.7373 -40.0343
lfingers 7.12502
lthumb -3.06372 -10.0766
rfemur -94.3032 -6.86086 25.5633
rtibia 137.982
rfoot -3.36114 -2.5272
rtoes -7.02415
lfemur -19.8372 7.17479 -14.865
ltibia 24.8236
lfoot 4.48786 7.13111
ltoes -27.6626
526
root 4.70741 18.3316 6.91883 15.3604 -12.5054 -7.24094
lowerback 2.80046 1.30351 4.24761
upperback -5.51753 2.1207 1.65487
thorax -7.25394 0.856262 -0.833004
lowerneck -10.5405 -4.16117 -5.41378
upperneck 19.3831 -5.60289 4.09218
head 7.9957 -2.68492 1.68528
rclavicle 7.72775e-015 2.14687e-014
rhumerus -36.9778 3.37558 -83.3062
rradius 50.0386
rwrist 7.91251
rhand -22.7172 -55.5917
rfingers 7.12502
rthumb 3.71624 -85.539
lclavicle 7.72775e-015 2.14687e-014
lhumerus -48.3348 -13.0824 82.8789
lradius 45.6342
lwrist -4.26953
lhand -29.7545 -41.0798
lfingers 7.12502
lthumb -3.08038 -11.1223
rfemur -94.7806 -5.91169 25.6344
rtibia 137.851
rfoot -3.74009 -3.48999
rtoes -7.08195
lfemur -20.024 7.56481 -15.3031
ltibia 26.6061
lfoot 0.0234224 7.83433
ltoes -29.2036
527
root 4.76912 18.1017 6.89829 14.9569 -12.7587 -6.87072
lowerback 3.18144 1.29015 4.08494
upperback -5.49784 2.10156 1.45787
thorax -7.45217 0.845815 -0.956836
lowerneck -10.8255 -4.20107 -5.05809
upperneck 19.3523 -5.63149 3.71355
head 8.01667 -2.70451 1.49274
rclavicle 2.5196e-014 -1.92821e-014
rhumerus -37.2871 3.36763 -83.456
rradius 51.3814
rwrist 7.91466
rhand -22.9061 -56.5804
rfingers 7.12502
rthumb 3.5338 -86.5309
lclavicle 2.5196e-014 -1.92821e-014
lhumerus -48.3756 -13.2287 82.58
lradius 46.087
lwrist -4.62309
lhand -29.8647 -42.1054
lfingers 7.12502
lthumb -3.18681 -12.1495
rfemur -95.0584 -5.05843 25.4368
rtibia 137.51
rfoot -4.21558 -4.38861
rtoes -7.67803
lfemur -20.4528 7.85966 -15.8725
ltibia 28.6258
lfoot -4.44802 8.80713
ltoes -28.1146
528
root 4.83188 17.8738 6.8838 14.6343 -12.7061 -6.66071
lowerback 3.22462 1.17951 4.27247
upperback -5.28292 1.94718 1.25397
thorax -7.24075 0.759709 -1.25992
lowerneck -11.0349 -4.2259 -5.02638
upperneck 18.9619 -5.71067 4.02225
head 7.93643 -2.7086 1.57805
rclavicle -1.88473e-014 4.17448e-015
rhumerus -37.1416 3.21438 -83.6856
rradius 52.2591
rwrist 8.37198
rhand -24.6524 -52.8834
rfingers 7.12502
rthumb 1.84729 -82.8551
lclavicle -1.88473e-014 4.17448e-015
lhumerus -47.9448 -13.2736 82.0325
lradius 46.4167
lwrist -4.9779
lhand -30.0006 -43.187
lfingers 7.12502
lthumb -3.31807 -13.2331
rfemur -95.1558 -4.10248 25.4166
rtibia 136.934
rfoot -4.76265 -5.45703
rtoes -8.05448
lfemur -21.0254 8.30814 -16.3521
ltibia 30.6474
lfoot -8.34466 9.43238
ltoes -25.0628
529
root 4.88204 17.647 6.84866 14.6024 -13.3424 -6.26782
lowerback 3.18427 1.33971 3.84505
upperback -5.11645 2.11075 1.0139
thorax -7.03241 0.862971 -1.28452
lowerneck -11.5553 -4.38777 -5.15465
upperneck 18.7734 -5.95691 4.41185
head 7.9961 -2.79008 1.69141
rclavicle 1.17034e-014 -1.5704e-014
rhumerus -36.8095 2.80797 -83.723
rradius 52.7526
rwrist 9.51976
rhand -26.3603 -55.2987
rfingers 7.12502
rthumb 0.197728 -85.2784
lclavicle 1.17034e-014 -1.5704e-014
lhumerus -47.3142 -13.2232 81.3578
lradius 46.9052
lwrist -5.4581
lhand -30.0314 -44.3533
lfingers 7.12502
lthumb -3.34776 -14.3998
rfemur -95.8821 -1.95113 24.9551
rtibia 136.196
rfoot -4.68478 -6.57881
rtoes -7.82606
lfemur -22.0031 9.39026 -17.2877
ltibia 32.5332
lfoot -11.8271 10.1102
ltoes -20.5854
530
root 4.92189 17.4155 6.80503 14.5243 -13.932 -4.68083
lowerback 3.00716 1.46019 2.09328
upperback -5.09436 2.12095 0.528952
thorax -6.93973 0.949346 -0.808678
lowerneck -11.9632 -4.5749 -5.38518
upperneck 18.7202 -6.21881 4.75803
head 8.0849 -2.89069 1.80675
rclavicle 2.05991e-014 -1.19271e-014
rhumerus -36.8455 2.37527 -83.5646
rradius 53.7883
rwrist 10.7608
rhand -26.4709 -52.8582
rfingers 7.12502
rthumb 0.0909427 -82.8379
lclavicle 2.05991e-014 -1.19271e-014
lhumerus -46.5887 -13.2828 80.6886
lradius 47.3144
lwrist -5.99823
lhand -29.7732 -45.063
lfingers 7.12502
lthumb -3.09843 -15.1057
rfemur -97.3006 -1.48737 23.4222
rtibia 135.649
rfoot -4.90422 -6.69444
rtoes -6.67523
lfemur -23.2903 10.039 -19.53
ltibia 34.2482
lfoot -14.9496 11.1578
ltoes -18.2204
531
root 4.94817 17.1958 6.76819 14.367 -14.5992 -2.38184
lowerback 2.48394 1.52783 -0.547319
upperback -5.04793 2.00751 -0.0648898
thorax -6.65678 1.01632 0.0736683
lowerneck -12.2168 -4.7201 -5.70529
upperneck 18.5061 -6.41287 5.15394
head 8.09465 -2.96358 1.96382
rclavicle -4.39066e-014 -1.68967e-014
rhumerus -36.9756 2.15673 -83.4218
rradius 54.9354
rwrist 11.6179
rhand -27.7881 -52.1234
rfingers 7.12502
rthumb -1.18124 -82.0998
lclavicle -4.39066e-014 -1.68967e-014
lhumerus -45.6826 -13.3612 80.0149
lradius 47.4927
lwrist -6.53212
lhand -29.6833 -45.5287
lfingers 7.12502
lthumb -3.01161 -15.5702
rfemur -98.9788 -1.52264 21.1694
rtibia 135.051
rfoot -5.2506 -6.35094
rtoes -5.16402
lfemur -24.6185 10.3873 -22.5259
ltibia 35.809
lfoot -17.5384 12.4217
ltoes -17.1353
532
root 4.96641 17.0022 6.74094 14.0994 -15.069 -0.457728
lowerback 1.97051 1.56116 -2.79546
upperback -4.89684 1.91326 -0.532589
thorax -6.26634 1.06662 0.868069
lowerneck -12.3704 -4.8915 -6.16736
upperneck 18.052 -6.63081 5.68069
head 8.01928 -3.04796 2.18659
rclavicle -3.72721e-016 -1.94809e-014
rhumerus -37.1333 1.61771 -83.1056
rradius 55.8953
rwrist 13.0206
rhand -27.379 -55.4436
rfingers 7.12502
rthumb -0.786147 -85.4219
lclavicle -3.72721e-016 -1.94809e-014
lhumerus -44.7931 -13.4254 79.3574
lradius 47.797
lwrist -7.04547
lhand -29.9389 -45.9383
lfingers 7.12502
lthumb -3.2584 -15.9835
rfemur -99.9292 -1.05153 19.1582
rtibia 134.093
rfoot -5.78796 -6.70269
rtoes -6.02756
lfemur -25.7347 10.4922 -24.9919
ltibia 37.331
lfoot -19.7247 13.5941
ltoes -15.6502
533
root 4.98612 16.8323 6.71755 13.701 -15.1199 0.568254
lowerback 1.89255 1.61185 -3.96713
upperback -4.68793 1.91652 -0.781989
thorax -6.03889 1.11237 1.26869
lowerneck -12.4611 -5.13236 -6.52478
upperneck 17.6025 -6.92649 6.01146
head 7.93121 -3.18155 2.31872
rclavicle -2.90226e-014 5.96354e-016
rhumerus -37.5432 0.701848 -82.5992
rradius 57.1166
rwrist 14.6639
rhand -25.1275 -58.3697
rfingers 7.12502
rthumb 1.38839 -88.3449
lclavicle -2.90226e-014 5.96354e-016
lhumerus -43.8582 -13.6339 78.7173
lradius 48.3149
lwrist -7.35381
lhand -30.1427 -46.4253
lfingers 7.12502
lthumb -3.45523 -16.4736
rfemur -99.9057 -0.0144171 17.962
rtibia 132.8
rfoot -6.17608 -7.48562
rtoes -6.7744
lfemur -26.5318 10.3413 -26.3185
ltibia 39.0411
lfoot -21.4819 14.7352
ltoes -14.7212
534
root 5.01193 16.6821 6.68505 13.2491 -14.8404 1.03327
lowerback 2.20542 1.63435 -4.45853
upperback -4.5235 1.90622 -0.859116
thorax -6.06194 1.12607 1.45734
lowerneck -12.4904 -5.40026 -6.72882
upperneck 17.3135 -7.24082 6.03741
head 7.87145 -3.34242 2.32342
rclavicle -8.84592e-015 2.78299e-015
rhumerus -38.2157 0.0124771 -82.1874
rradius 58.5066
rwrist 14.9907
rhand -23.564 -61.9712
rfingers 7.12502
rthumb 2.89847 -268.069
lclavicle -8.84592e-015 2.78299e-015
lhumerus -42.91 -14.0301 78.1799
lradius 48.8233
lwrist -7.39217
lhand -30.5689 -47.2393
lfingers 7.12502
lthumb -3.86685 -17.2946
rfemur -99.5334 1.17727 17.3016
rtibia 131.313
rfoot -6.31226 -8.44899
rtoes -6.99012
lfemur -27.3563 10.0874 -26.94
ltibia 41.0971
lfoot -22.5213 15.67
ltoes -15.1147
535
root 5.04321 16.5579 6.64545 12.6853 -14.1934 1.47667
lowerback 2.76872 1.50889 -4.81638
upperback -4.3908 1.68913 -0.879431
thorax -6.24544 1.03567 1.6405
lowerneck -11.952 -5.69621 -7.00561
upperneck 16.6675 -7.58118 5.9886
head 7.59609 -3.54099 2.32673
rclavicle -3.49861e-014 2.98177e-014
rhumerus -39.0115 -0.431465 -81.8606
rradius 59.917
rwrist 14.3395
rhand -24.8017 -62.1463
rfingers 7.12502
rthumb 1.7031 -267.881
lclavicle -3.49861e-014 2.98177e-014
lhumerus -42.0265 -14.2939 77.685
lradius 49.2959
lwrist -7.54037
lhand -31.0877 -47.7507
lfingers 7.12502
lthumb -4.36785 -17.8158
rfemur -98.9383 1.82743 16.6474
rtibia 129.723
rfoot -6.49762 -9.1875
rtoes -6.46341
lfemur -28.2964 9.54759 -27.4115
ltibia 43.4652
lfoot -23.4773 15.8504
ltoes -14.5865
536
root 5.07574 16.4534 6.61298 11.9648 -13.4623 1.56728
lowerback 3.48369 1.36188 -4.76116
upperback -4.10876 1.46686 -0.807109
thorax -6.34294 0.922467 1.69282
lowerneck -11.3523 -6.07367 -7.33487
upperneck 15.79 -8.01659 5.92399
head 7.24608 -3.79085 2.32824
rclavicle 1.2921e-015 -4.57205e-015
rhumerus -39.6531 -1.02261 -81.4211
rradius 61.0849
rwrist 14.0258
rhand -29.14 -54.6851
rfingers 7.12502
rthumb -2.48693 -444.65
lclavicle 1.2921e-015 -4.57205e-015
lhumerus -40.9627 -14.2577 77.088
lradius 49.9913
lwrist -7.78384
lhand -31.4022 -47.742
lfingers 7.12502
lthumb -4.67156 -17.8135
rfemur -97.9411 2.55237 16.3026
rtibia 128.074
rfoot -6.6097 -9.80186
rtoes -5.06005
lfemur -29.004 8.80817 -27.4031
ltibia 45.9069
lfoot -24.7055 15.6353
ltoes -12.6204
537
root 5.09834 16.3524 6.58336 11.2507 -12.9111 0.891592
lowerback 4.41302 1.32999 -4.08915
upperback -3.80112 1.44482 -0.551357
thorax -6.53493 0.886115 1.57086
lowerneck -11.2375 -6.44337 -7.55041
upperneck 15.3428 -8.45459 5.85194
head 7.11872 -4.02297 2.29646
rclavicle 1.63749e-014 -1.21259e-014
rhumerus -40.3351 -1.55984 -81.0843
rradius 62.4383
rwrist 13.3226
rhand -26.3622 -61.3554
rfingers 7.12502
rthumb 0.195912 -268.665
lclavicle 1.63749e-014 -1.21259e-014
lhumerus -39.8313 -14.3849 76.5114
lradius 50.7708
lwrist -7.67544
lhand -31.8883 -47.9808
lfingers 7.12502
lthumb -5.14088 -18.0631
rfemur -96.7417 4.05544 16.7894
rtibia 126.488
rfoot -6.20886 -10.8213
rtoes -4.85267
lfemur -29.4525 8.35299 -26.534
ltibia 48.1493
lfoot -25.7576 15.4264
ltoes -11.3174
